<?xml version="1.0" encoding="UTF-8"?>
<svg version="1.1" viewBox="0 0 1672 1400" width="1280" height="1280" xmlns="http://www.w3.org/2000/svg">
<path transform="translate(0)" d="m0 0h1672v1400h-1672z" fill="#FDFDFD"/>
<path transform="translate(598,269)" d="m0 0h20l14 3 12 5 11 7 10 9 8 11 8 14 7 19 5 21 9-3 24-9 19-6 29-7 32-5 23-2h47l31 3 29 5 28 7 27 9 19 8h3l5-21 7-19 9-16 11-13 10-8 16-8 10-3 7-1h20l20 4 22 8 19 10 12 8 16 12 13 12 8 7 11 12 13 17 10 15 10 19 8 22 4 19v24l-3 14-5 12-7 12-12 13-15 11-16 8-15 6-21 6 8 31 5 27 2 17 1 15v39l-1 23 10 25 6 21 3 18v15h38l16 3 12 5 11 8 8 9 8 15 4 17v18l-4 16-7 14-9 10-9 7-10 5-16 4-119 1-21 13-16 8-19 9-24 9-28 9-32 8-32 6-37 5-39 3h-73l-38-3-37-5-28-5-40-10-36-12-26-11-20-10-18-11-4-3-119-1-14-3-16-8-11-10-7-11-5-12-3-16v-11l3-16 6-14 7-9 5-5 7-6 12-6 11-3 8-1h38v-11l3-20 5-19 7-19 4-9v-13l-1-21v-18l2-32 5-32 7-28 2-9-26-8-20-9-12-8-10-8-10-11-8-14-5-13-2-10v-25l3-15 7-21 9-19 12-19 11-14 10-11 7-8 14-13 17-13 15-10 19-10 19-7 16-4z" fill="#1A0139"/>
<path transform="translate(827,356)" d="m0 0h51l28 3 27 5 24 6 24 8 32 14 18 10 24 16 16 13 12 11 15 15 9 11 9 12 11 17 8 14 12 27 8 24 6 26 4 28 1 13v43l-1 14v10l3 9 6 14 6 18 4 20v14h-209l1-11-1-5-8 10-10 9-15 8-14 4-6 1h-20l-16-4-12-7-6-7-3-8 13-11 8-7 6-5 7-8 9-13 5-11 1-4v-9l-4-9-9-7-15-5-11-2-12-1h-21l-18 2-16 5-10 6-5 8-1 3v9l4 12 7 11 9 10 12 12 17 13-3 9-6 7-12 7-16 4h-20l-14-3-12-5-12-7-10-10-5-7-1 10v6h-209v-11l3-18 6-20 8-18 2-6v-16l-1-17v-30l2-25 5-30 8-30 10-25 9-19 11-18 12-17 11-13 11-12 9-9 22-18 16-11 15-9 23-12 27-11 22-7 30-7 25-4z" fill="#FDFDFD"/>
<path transform="translate(829,75)" d="m0 0h47l36 3 29 4 29 6 29 8 33 11 28 12 25 12 25 14 30 20 16 12 10 8 13 11 13 12 24 24 7 8 14 17 14 19 12 18 13 22 14 27 12 28 11 33 7 27 5 26 4 36 1 20v23l-2 31-4 31-6 28-7 25-10 29-10 23-10 21-14 24-1 2-30-2-1-1-4-20-6-21-8-20 1-14v-44l-3-32-5-28-2-13 20-8 17-9 16-12 13-13 10-15 7-16 4-15 1-7v-27l-3-17-6-21-8-18-10-18-11-16-11-14-12-13-15-15-11-9-16-12-20-12-16-8-19-7-15-4-12-2h-26l-18 4-15 6-12 7-12 11-7 7-10 15-9 19-5 12-10-3-26-8-33-7-26-4-22-2h-54l-30 3-29 5-30 7-28 9-5-12-9-19-8-12-11-12-10-9-14-8-16-6-15-3h-26l-20 4-24 8-16 8-16 9-14 10-14 11-12 11-16 16-9 11-11 15-11 18-8 15-7 18-5 19-2 12v29l4 18 5 13 7 13 8 10 6 7 11 9 15 10 23 11 8 3-1 10-5 27-3 26-1 18v28l1 24-8 19-7 25-3 16-19 1-11 1-6-9-12-22-11-23-11-28-9-28-6-24-5-27-3-25-1-14v-52l3-31 5-30 8-32 11-33 12-28 13-26 13-22 12-18 14-19 9-11 12-14 14-15 16-16 8-7 14-12 13-10 15-11 15-10 18-11 18-10 16-8 19-9 28-11 34-11 28-7 27-5 31-4z" fill="#74C23B"/>
<path transform="translate(852,788)" d="m0 0 4 2 9 8 12 6 16 4h22l18-4 8-3h311l10 3 9 6 6 8 4 10v17l-4 10-4 6-8 7-11 4h-803l-10-4-8-6-6-9-3-10v-13l4-11 4-6 9-8 13-4h311l15 5 11 2h22l16-4 12-6 10-9z" fill="#73C13A"/>
<path transform="translate(1101,301)" d="m0 0 16 1 15 4 15 6 13 7 16 11 13 11 16 16 11 14 9 14 8 15 7 21 2 12v14l-3 14-8 16-11 12-10 7-16 8-17 6-10 1-8-16-10-17v-2l16-6 9-6 8-9 4-10 1-4v-9l-4-16-8-15-8-10-8-9-14-11-17-9-11-3h-16l-10 4-6 5-6 10-5 16h-3l-14-10-15-9-1-4 4-18 5-14 7-13 9-10 7-6 12-6z" fill="#FCFCFC"/>
<path transform="translate(598,301)" d="m0 0 15 1 13 4 11 7 10 10 8 14 5 12 4 16 1 9-9 6-16 10-7 5-3-9-5-12-6-8-8-5-6-2h-16l-13 4-15 8-10 8-9 8-11 14-8 15-4 16v10l3 10 6 9 7 6 15 7 6 2-2 6-9 16-7 13-9-1-15-5-16-8-9-6-10-9-7-10-5-11-3-13v-15l3-16 7-19 8-15 11-16 12-14 16-16 13-10 17-11 17-8 16-5z" fill="#FCFCFC"/>
<path transform="translate(631,902)" d="m0 0h443l-1 2-26 10-29 9-28 7-33 6-40 5-27 2h-74l-37-3-37-5-31-6-31-8-33-11-16-7z" fill="#D9D9D9"/>
<path transform="translate(1020,1075)" d="m0 0h42l17 46 5 14v3h2l3-10 14-40 5-13h41v107h-33l-1-50-15 49-1 1h-28l-3-7-13-43-1 50h-33l-1-1z" fill="#1A0139"/>
<path transform="translate(1312,1073)" d="m0 0h19l13 4 10 6 9 8 7 11 4 9 2 10v13l-3 13-6 12-9 10-7 6-11 5-14 3h-11l-16-4-10-5-10-9-6-8-5-11-2-8v-21l4-13 6-10 6-7 10-7 11-5z" fill="#1A0139"/>
<path transform="translate(1431,1073)" d="m0 0h19l14 4 11 7 10 10 6 11 4 12v21l-4 13-6 10-9 10-11 7-13 4-6 1h-11l-14-3-14-7-8-7-9-13-4-13-1-5v-14l4-16 5-9 9-10 10-7 13-5z" fill="#1A0139"/>
<path transform="translate(544,1075)" d="m0 0h56l14 4 10 6 9 8 6 10 4 10 1 6v18l-3 12-6 11-9 10-10 6-10 4-13 2h-49z" fill="#1A0139"/>
<path transform="translate(1165,1075)" d="m0 0h65l12 4 8 7 4 9v15l-5 10-9 6h-2v2l5 1 6 4 6 8 2 7v10l-4 11-5 5-8 5-14 3h-61z" fill="#1A0139"/>
<path transform="translate(800,1075)" d="m0 0h65l10 3 8 6 5 8 1 4v13l-4 9-8 7-4 2 10 5 6 8 3 10-1 11-5 10-7 6-11 4-7 1h-61z" fill="#1A0139"/>
<path transform="translate(426,1075)" d="m0 0h34l16 25 17 26v2h2v-53h33v107h-33l-8-11-12-19-14-21v-2h-2v53h-33z" fill="#1A0139"/>
<path transform="translate(1147,313)" d="m0 0 6 2 16 10 13 10 10 9 13 13 11 14 9 14 8 15 7 21 2 12v14l-3 14-8 16-11 12-10 7-16 8-17 6-10 1-8-16-10-17v-2l16-6 9-6 8-9 4-10 2-13h1l1-10v-24l-3-17-6-18-8-16-10-15-12-13-4-4z" fill="#D9D9D9"/>
<path transform="translate(557,313)" d="m0 0 2 1-5 5-11 12-10 15-8 15-7 21-2 11-1 11v13l1 11 1 3 1-5h1v16l3 10 6 9 7 6 15 7 6 2-2 6-9 16-7 13-9-1-15-5-16-8-9-6-10-9-7-10-5-11-3-13v-15l3-16 7-19 8-15 11-16 12-14 16-16 13-10 17-11z" fill="#D9D9D9"/>
<path transform="translate(935,1075)" d="m0 0h39l14 38 21 58 3 8v3h-34l-4-9-3-7h-35l-3 11-2 5h-35l3-10 14-39 11-30 10-27z" fill="#1A0139"/>
<path transform="translate(688,1075)" d="m0 0h39l7 18 21 58 10 27v4h-34l-4-10-1-6h-36l-5 15-1 1h-35l3-10 18-49 17-46z" fill="#1A0139"/>
<path transform="translate(340,1075)" d="m0 0h39l15 40 10 28 11 30 2 9h-34l-4-10-1-6h-36l-6 16h-35l3-10 18-49 17-47z" fill="#1A0139"/>
<path transform="translate(210,1075)" d="m0 0h58l12 4 9 7 6 9 2 7v19l-4 10-7 8-14 7-12 2h-17v34h-33z" fill="#1A0139"/>
<path transform="translate(540,698)" d="m0 0 7 14 9 10 9 8 15 9 21 8 21 5 23 3 15 1h27l45-3-2 7v11h-209v-11l3-18 6-20 8-18z" fill="#D9D9D9"/>
<path transform="translate(1165,701)" d="m0 0 3 4 6 14 6 18 4 20v14h-209l1-11-2-7 27 2 18 1h27l25-2 23-4 23-7 16-8 12-8 12-12z" fill="#D9D9D9"/>
<path transform="translate(1007,590)" d="m0 0 13 2 11 7 8 10 5 10 4 14 1 16-2 15-5 14-7 11-9 8-9 4-5 1h-7l-10-3-8-6-8-9-7-15-3-14v-17l1-7 2-1 4 11 6 8 6 3h11l6-4 6-7 4-13v-12l-4-13-4-5v-2l-6-3v-2z" fill="#1A0139"/>
<path transform="translate(852,788)" d="m0 0 4 2 9 8 12 6 16 4h22l18-4 8-3h311v1l-283 1-9 7-19 10-17 6-17 3h-20l-16-3-16-6-7 1-13 5-16 3h-20l-20-4-16-6-17-9-9-6v-2h-283v-1h311l15 5 11 2h22l16-4 12-6 10-9z" fill="#4B8828"/>
<path transform="translate(696,590)" d="m0 0 12 2 10 6 9 10 6 13 3 10 1 7v16l-3 15-8 16-7 8-8 6-10 3h-7l-10-3-9-6-7-8-7-14-3-12-1-16 2-15 2-4 3 12 5 9 7 6 2 1h11l8-5 6-10 2-7v-16l-4-11-4-6-7-5v-1z" fill="#1A0139"/>
<path transform="translate(1438,1103)" d="m0 0 9 1 8 5 4 5 2 6v16l-5 10-8 5-10 1-10-3-7-8-2-6v-14l3-8 4-5 7-4z" fill="#FBFBFB"/>
<path transform="translate(1319,1103)" d="m0 0 11 2 6 4 5 10 1 4v10l-4 11-7 6-8 2-10-1-8-5-4-7-2-11 2-12 4-6 6-5z" fill="#FBFBFB"/>
<path transform="translate(565,1221)" d="m0 0h10l10 5 5 6 2 4 1 10-3 10-4 5-9 5h-14l-8-4-5-6-3-8v-9l3-8 5-5 4-3z" fill="#1A0139"/>
<path transform="translate(577,1104)" d="m0 0h16l10 5 4 5 3 7v14l-5 10-7 5-7 2h-14z" fill="#FAFAFA"/>
<path transform="translate(1231,1221)" d="m0 0 15 1 6 3 4 6v8l-4 6-5 4 9 15v2h-10l-9-15v-2h-5v17h-9v-44z" fill="#1A0139"/>
<path transform="translate(888,1222)" d="m0 0h9l7 10 11 17v2h2v-29h9v44h-9l-8-11-11-17-2-1v29h-8z" fill="#1A0139"/>
<path transform="translate(680,1221)" d="m0 0h10l10 5 4 5 1 4h-10l-4-4-3-1h-8l-6 4-2 4v11l3 5 4 3 9 1 6-3 3-7h-15v-6h24v10l-4 7-8 6-3 1h-13l-8-4-6-7-2-5v-13l4-8 6-5z" fill="#1A0139"/>
<path transform="translate(790,1222)" d="m0 0h12l10 29 5 13v2h-9l-4-8h-16l-4 8h-9l3-10z" fill="#1A0139"/>
<path transform="translate(1015,1222)" d="m0 0h8v18h20v-18h8v44h-8v-19h-20v19h-8z" fill="#1A0139"/>
<path transform="translate(362,1221)" d="m0 0h10l6 3 4 5v4h-9l-4-4h-6l-2 2 1 6 16 6 5 6v8l-4 6-5 3h-13l-6-3-3-3-1-7h9l3 5 5 1 5-1v-6l-3-3-14-5-5-6v-8l4-6z" fill="#1A0139"/>
<path transform="translate(1329,1222)" d="m0 0h26v6l-1 1-16 1v9l15 1v6l-1 1-14 1v10l17 1v7h-26z" fill="#1A0139"/>
<path transform="translate(1125,1222)" d="m0 0h26l-1 7-16 1v9l15 1v7l-15 1v10l16 1 1 7h-26z" fill="#1A0139"/>
<path transform="translate(565,1229)" d="m0 0h10l7 6 2 6-1 9-4 6-6 3-9-1-6-5-2-5v-9l4-7z" fill="#F9F9F9"/>
<path transform="translate(455,1222)" d="m0 0h9v37h15v7h-24z" fill="#1A0139"/>
<path transform="translate(244,1101)" d="m0 0h12l6 3 2 4v7l-4 5-2 1h-15v-19z" fill="#F7F7F7"/>
<path transform="translate(1199,1139)" d="m0 0h16l5 2 3 4-1 7-4 3h-20v-15z" fill="#F7F7F7"/>
<path transform="translate(834,1139)" d="m0 0h16l5 2 3 5-1 6-4 3h-20v-15z" fill="#F7F7F7"/>
<path transform="translate(1198,1101)" d="m0 0h17l4 2 1 2v8l-3 3-6 1h-12l-1-1z" fill="#F7F7F7"/>
<path transform="translate(833,1101)" d="m0 0h17l5 4v7l-4 4-5 1h-12l-1-1z" fill="#F7F7F7"/>
<path transform="translate(358,1112)" d="m0 0h2l9 26-1 3h-18l1-7z" fill="#F3F3F3"/>
<path transform="translate(953,1112)" d="m0 0h2l9 27-1 2h-18l1-7z" fill="#F3F3F3"/>
<path transform="translate(707,1112)" d="m0 0 2 2 8 24-1 3h-18l1-7 7-21z" fill="#F4F4F4"/>
<path transform="translate(1232,1229)" d="m0 0h12l3 3v7l-3 3h-12z" fill="#F4F4F4"/>
<path transform="translate(795,1233)" d="m0 0h2l5 14v4h-12l1-7z" fill="#F0F0F0"/>
<path transform="translate(1115,1130)" d="m0 0h1v52h-1l-1-42-2 2 2-10z" fill="#DBDBDB"/>
</svg>
